




<svg xmlns="http://www.w3.org/2000/svg" xml:space="preserve" id="air-mouse" x="0" y="0" style="enable-background:new 0 0 512 512" version="1.1" viewBox="0 0 512 512">
  <rect width="480" height="480" x="16" y="16" rx="40" ry="40"  fill="#1E3A8A" />

<g transform="translate(24,-32)">
    <path d="M332.6,223.6v153.2c0,60.6-49.1,109.7-109.7,109.7c-60.6,0-109.7-49.1-109.7-109.7V223.6
		c0-60.6,49.1-109.7,109.7-109.7c30.3,0,57.7,12.3,77.6,32.1C320.3,165.9,332.6,193.3,332.6,223.6z" style="fill:#fff"></path>

    <g>
      <path d="M300.5,146c-19.9-19.9-47.3-32.1-77.6-32.1c-60.6,0-109.7,49.1-109.7,109.7v24.5h219.5v-24.5
			C332.6,193.3,320.3,165.9,300.5,146z M232,199.1c0,5-4.1,9.1-9.1,9.1c-5,0-9.1-4.1-9.1-9.1v-36.3c0-5,4.1-9.1,9.1-9.1
			c2.5,0,4.8,1,6.4,2.7c1.6,1.6,2.7,3.9,2.7,6.4V199.1z" style="fill:#7087bb"></path>
    </g>

   <path d="M222.9,208.2L222.9,208.2c-5,0-9.1-4.1-9.1-9.1v-36.3c0-5,4.1-9.1,9.1-9.1h0c5,0,9.1,4.1,9.1,9.1v36.3
		C232,204.1,227.9,208.2,222.9,208.2z" style="fill:#fff"></path>
    
 
  </g>
</svg>
