<svg version="1.1" id="Layer_1" xmlns="http://www.w3.org/2000/svg" xmlns:xlink="http://www.w3.org/1999/xlink" x="0px" y="0px"
	 width="100%" viewBox="0 0 188 188" enable-background="new 0 0 188 188" xml:space="preserve">

  <rect width="188" height="188" x="0" y="0" fill="#95B5DC" />

    <circle r="32" cx="108" cy="108" fill="#FFE8E0" />




<path fill="#1A1923" opacity="1.000000" stroke="none" 
	d="
M99.627739,101.898392 
	C101.062164,102.028389 102.118088,102.096848 103.560043,102.259079 
	C105.260010,104.864227 103.351067,105.830627 101.747665,106.949242 
	C99.827690,108.288734 97.368553,108.378883 95.211174,109.898514 
	C94.703453,110.383575 94.419029,110.653091 93.967331,111.125641 
	C93.628387,111.621864 93.538216,111.936684 93.661568,112.513176 
	C93.983093,113.050056 94.189484,113.354301 94.539337,113.922165 
	C94.761749,114.373016 94.837509,114.562393 95.001259,115.048775 
	C95.420700,116.995132 95.862297,118.611992 96.643761,120.459137 
	C97.163834,121.745003 97.711586,122.701996 97.208725,123.979660 
	C96.896980,124.353287 96.871773,124.584396 96.972076,125.140854 
	C99.865555,125.875282 98.784142,127.675705 98.111549,129.598328 
	C97.652580,135.978455 97.531479,141.966492 97.468483,148.412827 
	C97.383224,149.702652 97.239861,150.534195 97.020493,151.678467 
	C94.165451,152.924606 94.031097,150.758011 93.731369,149.085129 
	C93.296486,146.658005 93.536499,144.171310 93.294846,141.333221 
	C90.901062,131.891312 89.021683,122.737358 86.934525,113.631058 
	C86.672501,112.487846 86.234749,111.444176 85.592407,110.069611 
	C85.433067,109.485428 85.402184,109.244514 85.425217,108.644958 
	C85.818771,107.368408 86.549866,106.730652 87.341209,105.707710 
	C88.506325,104.371353 88.856514,102.950035 90.003571,101.602188 
	C93.324677,100.652519 96.316261,100.679634 99.627739,101.898392 
z"/>



<path fill="#2A2F3E" opacity="1.000000" stroke="none" 
	d="
M94.442993,110.504761 
	C94.166473,107.340782 96.766525,107.785423 98.434059,107.132484 
	C100.690376,106.249008 103.179039,105.821869 103.898590,102.649582 
	C106.257462,102.069778 107.290199,103.589996 108.280579,105.678032 
	C106.461159,108.590530 103.630295,109.221649 100.317932,109.703079 
	C98.456825,111.286613 96.660561,111.135338 94.442993,110.504761 
z"/>
<path fill="#B1C0DA" opacity="1.000000" stroke="none" 
	d="
M93.929962,110.440712 
	C95.748932,110.093315 97.436340,109.936737 99.547203,109.813263 
	C99.971382,110.317924 99.972122,110.789482 99.970352,111.613861 
	C97.579910,111.400925 96.044975,113.244949 93.731491,114.085938 
	C93.099533,113.949631 92.965050,113.706825 92.817825,113.228714 
	C92.498123,112.583862 92.430641,112.104332 92.741501,111.295258 
	C93.266373,110.946075 93.548691,110.827667 93.929962,110.440712 
z"/>

<path fill="#CAC9D5" opacity="1.000000" stroke="none" 
	d="
M133.009552,109.263252 
	C136.421890,107.707443 139.834702,106.395721 143.614899,105.037216 
	C144.355240,104.646210 144.798706,104.492455 145.641693,104.642410 
	C146.438461,105.500237 146.225540,106.173988 145.621674,107.122192 
	C144.109955,108.474930 142.761215,109.458092 141.076141,110.582306 
	C138.928528,111.400124 136.979370,111.160866 134.751129,111.550316 
	C134.150482,111.565636 133.909637,111.544479 133.333344,111.384720 
	C132.877319,111.036293 132.756775,110.826469 132.824127,110.306076 
	C133.012024,109.995506 133.010010,109.507339 133.009552,109.263252 
z"/>
<path fill="#393D4F" opacity="1.000000" stroke="none" 
	d="
M133.876587,111.569000 
	C135.880249,109.829704 138.102936,109.975410 140.561951,109.463150 
	C141.098038,109.487785 141.238541,109.632698 141.420929,110.074539 
	C141.372803,110.964096 140.912521,111.337067 140.604614,112.074280 
	C140.596329,112.712944 140.516296,113.065422 140.136459,113.552124 
	C139.168671,113.721245 138.435272,113.742203 137.351105,113.876831 
	C136.552505,113.928268 136.104660,113.866043 135.317932,113.840347 
	C133.928177,113.563744 133.564789,112.799110 133.876587,111.569000 
z"/>
<path fill="#5E6677" opacity="1.000000" stroke="none" 
	d="
M133.932999,111.371544 
	C134.352402,112.038361 134.549637,112.712746 134.862946,113.632004 
	C133.055099,115.544876 133.041016,114.076714 132.983856,112.333862 
	C132.879547,111.831299 132.782928,111.661430 132.978149,111.464172 
	C133.270004,111.436783 133.710831,111.379112 133.932999,111.371544 
z"/>
<path fill="#C9D5E8" opacity="1.000000" stroke="none" 
	d="
M133.191223,111.079025 
	C133.270004,111.436783 133.187500,111.752441 133.081818,111.876801 
	C132.466232,111.761383 131.699356,111.647591 131.505753,111.252731 
	C131.204849,110.638992 131.802490,110.243279 132.714630,110.035454 
	C133.045502,110.237427 133.078979,110.479340 133.191223,111.079025 
z"/>


<path fill="#39343B" opacity="1.000000" stroke="none" 
	d="
M155.683594,102.029961 
	C156.695358,102.147888 157.359634,102.366158 158.247803,102.301125 
	C158.456818,102.511208 158.441925,103.004601 158.652466,103.840828 
	C159.852417,105.069298 159.976013,106.122749 159.244339,107.646484 
	C158.838318,109.878311 158.692627,111.766289 156.317108,112.840912 
	C155.814163,113.130791 155.613586,113.254410 155.095367,113.223183 
	C154.529190,112.668228 154.373199,112.236336 154.354187,111.425659 
	C154.898209,109.577705 154.826233,108.090057 154.146942,106.286911 
	C153.966248,105.252556 154.000046,104.556625 154.257324,103.523735 
	C154.613022,102.758278 154.938400,102.411194 155.683594,102.029961 
z"/>
<path fill="#797E85" opacity="1.000000" stroke="none" 
	d="
M159.328644,107.956711 
	C158.977234,106.980309 158.957535,105.963730 158.907883,104.565407 
	C159.653427,104.145180 160.428925,104.106689 161.592407,104.076088 
	C163.118500,106.518570 162.094162,107.644150 159.328644,107.956711 
z"/>
<path fill="#625D62" opacity="1.000000" stroke="none" 
	d="
M154.694626,112.899307 
	C155.058395,112.992004 155.537003,112.971863 155.775864,112.989517 
	C156.037994,113.456192 156.061264,113.905205 156.136169,114.687515 
	C155.969940,115.423752 155.752090,115.826683 155.428558,116.557884 
	C154.428833,117.743263 153.520309,118.727051 152.963547,116.320671 
	C152.788818,114.684143 153.046051,113.526787 154.694626,112.899307 
z"/>



<path fill="#484848" opacity="1.000000" stroke="none" 
	d="
M22.338955,107.311417 
	C23.797005,106.786423 24.785170,107.475288 25.878910,108.652420 
	C26.595825,110.057022 25.696791,110.504799 24.718403,111.201553 
	C23.402771,111.674026 22.317133,111.426788 21.007915,111.798927 
	C19.752193,112.217484 18.976185,112.706673 19.054480,114.227257 
	C19.035067,115.242355 18.905481,115.910164 18.408932,116.839325 
	C17.963423,117.219376 17.734598,117.305817 17.182772,117.218216 
	C15.363280,114.623383 13.866793,112.202591 12.411274,109.378960 
	C13.670835,109.044052 14.889428,109.111992 16.552645,109.093513 
	C17.028936,108.810593 17.060606,108.614075 17.016775,108.126984 
	C18.038601,107.822060 19.135925,107.807724 20.645924,107.784966 
	C21.245529,107.661804 21.432461,107.547073 21.913731,107.285332 
	C22.208067,107.138329 22.266962,107.282158 22.338955,107.311417 
z"/>

<path fill="#3E3A3D" opacity="1.000000" stroke="none" 
	d="
M16.760214,117.358292 
	C16.859770,117.044167 17.275295,117.011292 17.483368,116.999435 
	C19.622328,115.740074 21.360392,115.534576 22.687759,118.308640 
	C22.721811,118.988564 22.690794,119.259941 22.510942,119.907242 
	C22.210346,120.501396 22.058586,120.719612 21.616129,121.204285 
	C20.654575,121.892960 19.886044,122.003212 18.806557,122.351517 
	C17.846727,122.430328 17.211710,122.315361 16.267813,122.292183 
	C11.066538,120.049965 17.043661,119.334816 16.760214,117.358292 
z"/>



<path fill="#484752" opacity="1.000000" stroke="none" 
	d="
M89.315697,152.695221 
	C88.353081,151.895523 87.420868,151.501434 86.222778,150.959091 
	C85.555672,146.134995 89.725357,143.801651 91.676437,139.936035 
	C92.430901,139.482559 92.920998,139.446976 93.712936,139.816406 
	C95.689262,142.104279 94.663292,144.542465 94.986572,146.785660 
	C95.232498,148.492020 94.189041,150.513733 96.556290,151.902679 
	C96.918015,152.978333 96.891548,153.965454 96.874718,155.326538 
	C93.406509,157.632416 91.546600,154.872803 89.315697,152.695221 
z"/>



<path fill="#191621" opacity="1.000000" stroke="none" 
	d="
M85.961586,62.625977 
	C86.403099,66.354523 86.857300,69.696609 87.337418,73.466461 
	C87.159050,74.462456 87.142235,75.019806 87.622498,75.798203 
	C87.839485,78.073357 87.893829,80.108070 88.054047,82.567207 
	C88.659210,83.686691 88.828209,84.452194 88.460709,85.650864 
	C88.220215,87.070259 88.169518,88.130440 88.074242,89.588272 
	C88.052116,91.182861 87.793320,92.411293 88.596176,93.790771 
	C89.148956,94.813477 89.533264,95.585091 89.997902,96.669800 
	C89.621582,97.867218 88.774307,98.211243 87.599525,98.651237 
	C86.356857,99.035721 85.482208,99.458771 84.561981,99.731094 
	C80.629517,100.894791 80.621590,102.941467 83.350250,105.927078 
	C83.606224,106.740196 83.570732,107.225243 83.197807,108.010239 
	C79.248192,109.027618 76.975609,107.167023 75.302963,103.701569 
	C75.187019,102.675911 75.247101,102.049889 75.552185,101.443985 
	C75.712296,101.126022 76.230789,100.694374 76.157898,100.689857 
	C68.875862,100.238647 74.657486,96.750854 74.875488,94.279655 
	C75.251884,93.526390 75.529060,93.137634 76.130325,92.562424 
	C78.403015,91.493263 79.249214,90.308563 77.755989,88.258606 
	C76.701744,86.811325 75.916763,85.204567 75.361031,83.121841 
	C75.272346,82.544212 75.259331,82.309608 75.286926,81.724396 
	C76.792892,77.957924 76.791641,74.023201 79.815559,71.107697 
	C81.350693,69.627602 79.774437,67.708717 78.262924,66.535103 
	C76.675110,65.302246 75.030640,64.166924 75.031952,61.505554 
	C75.116386,60.908249 75.177177,60.672539 75.397217,60.106285 
	C77.848305,58.191132 77.422478,55.413605 78.656723,52.957577 
	C79.573875,52.204998 80.330795,52.027634 81.534515,52.043407 
	C82.741898,52.276260 83.430908,52.679855 84.280540,53.555321 
	C85.582634,56.559746 86.085983,59.346554 85.961586,62.625977 
z"/>
<path fill="#2A2F3E" opacity="1.000000" stroke="none" 
	d="
M86.786644,98.364532 
	C87.844284,97.721939 88.634941,97.368858 89.751923,96.999329 
	C92.456245,100.243279 96.368607,100.108429 99.839630,101.639404 
	C96.964058,103.021584 93.920563,101.467484 90.445663,101.960114 
	C88.926598,102.602119 88.000557,102.115761 86.825562,101.242889 
	C86.219360,100.187675 86.195724,99.424225 86.786644,98.364532 
z"/>

<path fill="#2A2F3E" opacity="1.000000" stroke="none" 
	d="
M88.818008,93.691246 
	C86.574883,93.442558 86.847542,91.995689 87.772583,90.199341 
	C88.310226,91.104164 88.590797,92.222397 88.818008,93.691246 
z"/>
<path fill="#1C191F" opacity="1.000000" stroke="none" 
	d="
M75.724205,102.756645 
	C77.008080,106.032249 79.645500,106.985214 82.643906,107.963242 
	C83.993820,107.179619 84.835838,107.438103 85.790398,108.689133 
	C88.726562,110.736565 87.848557,113.747826 88.659889,116.177147 
	C91.175865,123.710625 91.965240,131.613266 93.993866,139.649643 
	C93.594994,140.080551 93.187187,140.102966 92.473984,140.149078 
	C91.557999,140.548813 90.917755,140.830292 89.837433,140.727051 
	C89.293808,140.549011 89.091522,140.441010 88.668480,140.078400 
	C88.344292,139.630661 88.240852,139.437576 88.009850,138.951630 
	C87.636238,138.099060 87.391495,137.538300 86.474640,137.169159 
	C85.783318,136.890228 85.403915,136.690247 84.802750,136.227875 
	C84.334976,135.609375 84.172066,135.195374 84.021233,134.422806 
	C84.040756,132.755432 84.020302,131.460358 82.268982,130.607681 
	C81.841057,130.253128 81.694008,130.084610 81.412949,129.610367 
	C80.955757,128.301163 81.342606,127.149918 80.414886,126.000511 
	C80.043434,125.621681 79.895409,125.468056 79.563690,125.050858 
	C79.084091,124.218140 78.887016,123.609848 78.564522,122.715912 
	C76.566132,120.459572 73.937111,121.750397 71.483154,120.793198 
	C68.609406,119.223335 69.363960,116.986755 69.753754,114.522263 
	C68.440796,112.120644 67.328697,113.948929 65.825447,114.466194 
	C63.344269,114.580711 61.495564,113.053795 58.918930,113.373215 
	C55.225689,113.322205 51.920498,113.475784 48.284416,114.223053 
	C45.940872,114.291550 44.004723,114.616806 41.698563,114.912094 
	C41.091675,114.890282 40.850601,114.859581 40.261086,114.725449 
	C39.025623,114.207230 38.234947,113.687157 37.937263,112.386444 
	C38.588501,111.862671 39.147034,111.682091 39.850121,111.243294 
	C40.403370,110.467186 40.938251,110.268898 41.854065,110.499107 
	C42.870518,110.505760 43.619011,110.370094 44.693359,110.029129 
	C46.318417,108.335930 48.165619,107.964172 50.239212,107.285400 
	C52.048466,106.602211 53.207699,105.519493 54.792454,104.486015 
	C56.486015,103.937439 57.854004,103.537399 55.841183,101.655861 
	C57.600941,99.119087 59.796700,99.735153 62.311363,100.544968 
	C64.214005,101.686195 65.344963,103.425301 67.682861,103.596680 
	C68.311958,103.507637 68.504593,103.265259 68.606766,102.617874 
	C68.720352,102.132812 68.809814,101.944305 69.159615,101.562714 
	C69.834991,101.188675 70.268234,101.072624 71.071114,100.992508 
	C72.904869,101.131157 74.296539,101.509857 75.724205,102.756645 
z"/>
<path fill="#131320" opacity="1.000000" stroke="none" 
	d="
M86.001312,108.754555 
	C85.212105,108.687744 84.423607,108.370071 83.315567,108.026016 
	C82.997177,107.555061 82.998329,107.110504 82.999283,106.332512 
	C81.472931,102.603661 82.980659,101.031670 86.670792,100.750412 
	C87.850037,101.213577 88.640129,101.463791 89.721725,101.834877 
	C89.792435,103.327927 90.594017,105.039253 88.359001,105.930733 
	C87.156235,106.216095 86.888565,107.006828 86.208992,107.797272 
	C86.002708,108.169197 86.002357,108.336441 86.001312,108.754555 
z"/>

<path fill="#191621" opacity="1.000000" stroke="none" 
	d="
M86.322311,107.958099 
	C86.255692,106.996521 85.375198,105.253693 87.804031,105.767899 
	C87.921745,106.903160 87.680061,107.691460 86.322311,107.958099 
z"/>
<path fill="#2A2F3E" opacity="1.000000" stroke="none" 
	d="
M92.664429,111.002762 
	C92.921913,111.447449 92.892357,111.908142 92.787262,112.706970 
	C91.196091,112.601349 90.650345,111.997551 92.664429,111.002762 
z"/>
<path fill="#342A2E" opacity="1.000000" stroke="none" 
	d="
M88.586067,139.934540 
	C89.744064,140.016769 90.551529,140.041245 91.763786,140.119263 
	C91.475227,144.307388 87.833549,146.650482 86.029984,150.482864 
	C85.524849,150.877441 85.092796,150.944031 84.337448,150.950104 
	C83.845619,150.759537 83.677086,150.629471 83.321136,150.240845 
	C82.928749,149.732758 82.739525,149.471832 82.374100,149.052521 
	C81.751961,148.620422 81.510773,148.226929 81.584244,147.351379 
	C84.775917,145.466415 85.801781,142.023056 88.586067,139.934540 
z"/>

<path fill="#484752" opacity="1.000000" stroke="none" 
	d="
M83.134666,150.250504 
	C83.434677,150.057541 83.672050,150.223633 83.930008,150.685089 
	C83.721313,150.765976 83.428459,150.642349 83.134666,150.250504 
z"/>
<path fill="#61575D" opacity="1.000000" stroke="none" 
	d="
M82.253876,147.019135 
	C79.979355,146.784851 78.941597,144.566360 76.481140,144.769836 
	C76.016182,144.512039 75.900673,144.330826 75.508087,143.984863 
	C75.291931,143.596481 75.352859,143.372818 75.624313,142.872910 
	C79.365898,141.052490 81.638840,137.473251 85.904312,136.554733 
	C86.680916,136.583008 87.098633,136.712631 87.735634,137.147919 
	C88.232460,137.718277 88.435806,138.100235 88.789627,138.764160 
	C88.984528,139.022491 88.951378,139.506943 88.943993,139.749603 
	C86.464737,142.004150 87.302269,146.980743 82.253876,147.019135 
z"/>

<path fill="#977E7E" opacity="1.000000" stroke="none" 
	d="
M155.078735,112.639168 
	C153.868912,113.489517 154.115875,114.831581 153.225723,115.842384 
	C150.501068,115.529877 148.384552,113.795776 145.337891,113.970230 
	C144.642639,113.629189 144.479218,113.264618 144.509460,112.540169 
	C144.708710,112.076744 144.837402,111.915108 145.559753,111.607971 
	C146.766449,111.444778 147.375275,111.393379 148.271942,111.135063 
	C149.408829,110.762283 150.245972,110.494011 151.424866,110.140808 
	C152.739441,109.900375 153.687424,109.956367 154.867706,110.634155 
	C155.130341,111.344757 155.114700,111.815544 155.078735,112.639168 
z"/>
<path fill="#5E6677" opacity="1.000000" stroke="none" 
	d="
M144.982330,111.932182 
	C145.166519,112.654137 145.107483,113.017891 144.999329,113.653702 
	C143.542755,113.917290 142.135315,113.908806 140.314972,113.800308 
	C139.926666,113.342323 139.951263,112.984360 139.960022,112.357574 
	C140.863312,111.313026 141.948105,111.020279 143.549896,111.082626 
	C144.229233,111.303200 144.484161,111.438591 144.982330,111.932182 
z"/>

<path fill="#9E8079" opacity="1.000000" stroke="none" 
	d="
M145.948822,105.296509 
	C148.150131,103.362625 150.639267,102.024757 151.149323,98.687065 
	C152.200424,98.207962 153.247726,98.089478 153.888123,99.645020 
	C153.908234,100.852448 154.519897,101.561783 154.768860,102.711655 
	C154.812561,103.635567 154.836441,104.232582 154.899841,105.127388 
	C154.860504,105.688370 154.781647,105.951561 154.420471,106.516762 
	C151.912094,108.216591 149.475967,108.472519 146.528702,108.035362 
	C145.879684,107.793625 145.634384,107.660904 145.123596,107.204811 
	C145.179367,106.435257 145.500580,105.989075 145.948822,105.296509 
z"/>
<path fill="#625D62" opacity="1.000000" stroke="none" 
	d="
M144.584198,106.992340 
	C145.093292,106.963272 145.328430,107.045105 145.914246,107.255394 
	C147.794586,108.884544 149.887924,110.369225 146.051270,112.065994 
	C145.706070,112.119362 145.468201,112.213066 145.346878,112.251724 
	C144.959976,112.207970 144.694412,112.125557 144.021576,111.953064 
	C142.948624,111.255096 142.144043,111.203056 141.111588,111.042679 
	C140.918839,110.556664 140.920212,110.314095 140.939560,109.707199 
	C142.075104,108.596329 143.192673,107.849785 144.584198,106.992340 
z"/>
<path fill="#9D9CA6" opacity="1.000000" stroke="none" 
	d="
M140.660278,110.860626 
	C141.845963,110.782951 142.923111,110.088181 143.589737,111.621162 
	C142.637344,111.908577 141.660355,111.954170 140.313782,112.044258 
	C138.883972,111.222664 139.722946,111.103577 140.660278,110.860626 
z"/>

<path fill="#584C48" opacity="1.000000" stroke="none" 
	d="
M155.059174,102.932846 
	C154.270157,102.085556 151.524506,102.121353 153.745773,100.000900 
	C154.617889,100.413612 155.216446,100.898834 155.923050,101.656837 
	C155.797287,102.228790 155.563492,102.527969 155.059174,102.932846 
z"/>

<path fill="#201115" opacity="1.000000" stroke="none" 
	d="
M153.735947,106.190552 
	C154.116028,105.810150 154.262390,105.697479 154.674042,105.504997 
	C154.781418,107.190758 157.921783,108.502029 155.396240,110.716606 
	C154.054977,110.938225 152.963959,111.002480 151.468903,111.130753 
	C147.544205,107.386169 152.999817,108.196663 153.735947,106.190552 
z"/>
<path fill="#BEBFC5" opacity="1.000000" stroke="none" 
	d="
M21.977669,107.163956 
	C22.001646,107.389580 21.795225,107.640831 21.323700,107.834312 
	C21.210615,107.489975 21.440172,107.294327 21.977669,107.163956 
z"/>
<path fill="#221E1F" opacity="1.000000" stroke="none" 
	d="
M22.609121,120.133255 
	C22.219969,117.419296 20.750734,116.784950 18.115902,116.997574 
	C17.756804,116.164886 17.822165,115.342201 17.904198,114.106491 
	C19.056406,112.968674 20.519131,113.274658 21.952225,112.379486 
	C22.909225,112.021996 23.590239,112.027435 24.590775,111.894188 
	C25.584356,111.749344 26.251038,111.755150 27.244255,111.743851 
	C28.212709,111.799149 28.852333,111.923752 29.798820,111.678238 
	C30.879969,111.930397 31.211945,113.082695 32.666157,112.924255 
	C33.143795,113.179276 33.292446,113.349594 33.504330,113.854599 
	C33.414196,115.427910 32.698578,116.264503 31.320488,116.944687 
	C30.292717,117.639099 29.598276,118.254578 28.684978,119.154099 
	C27.759001,119.148178 27.234213,118.463966 26.134838,118.620598 
	C25.064415,119.390938 24.263020,120.047112 22.609121,120.133255 
z"/>

<path fill="#585759" opacity="1.000000" stroke="none" 
	d="
M28.209038,112.778252 
	C27.266191,112.978767 26.536869,112.964851 25.443253,112.929428 
	C24.509361,112.607674 23.971352,112.274719 23.857710,111.319893 
	C24.559658,110.488876 25.148951,109.957108 25.898052,109.168388 
	C26.963434,109.404465 27.869003,109.897491 28.946749,110.654099 
	C29.026537,111.525497 28.824751,112.087044 28.209038,112.778252 
z"/>
<path fill="#4F4D53" opacity="1.000000" stroke="none" 
	d="
M33.476135,114.448151 
	C33.075420,113.952354 33.055706,113.764000 33.015568,113.292297 
	C34.427811,112.663712 35.860477,112.318474 37.661556,112.008247 
	C38.587952,112.476837 39.145935,112.910423 39.906044,113.532166 
	C38.326851,115.891129 36.125168,115.523651 33.476135,114.448151 
z"/>

<path fill="#413E45" opacity="1.000000" stroke="none" 
	d="
M28.340845,112.960068 
	C28.192305,112.413734 28.389097,111.834778 28.852409,111.086746 
	C29.402119,110.948624 29.662161,111.043213 29.999172,111.384430 
	C29.628256,112.020760 29.157219,112.474098 28.340845,112.960068 
z"/>


<path fill="#37373B" opacity="1.000000" stroke="none" 
	d="
M25.165749,118.267319 
	C25.200600,117.015961 25.490004,116.055443 26.780191,116.319763 
	C27.916746,116.552605 28.056332,117.584221 28.364861,118.975319 
	C27.829782,120.205414 27.193445,120.972694 26.324978,121.894150 
	C25.908094,122.182182 25.723345,122.316032 25.216724,122.337547 
	C23.766964,120.844414 25.078505,119.756355 25.165749,118.267319 
z"/>
<path fill="#3B4655" opacity="1.000000" stroke="none" 
	d="
M24.685730,121.744781 
	C25.108526,121.987061 25.305492,121.996574 25.797651,122.027206 
	C25.117613,124.418411 23.477398,124.152290 21.323112,123.073723 
	C20.616568,122.594055 20.475931,122.136551 20.796635,121.307175 
	C21.024872,121.006966 20.998646,120.995834 20.999809,121.010017 
	C21.170052,120.889763 21.339130,120.755318 21.829914,120.580093 
	C23.063204,120.526199 23.856329,120.794197 24.685730,121.744781 
z"/>
<path fill="#221E1F" opacity="1.000000" stroke="none" 
	d="
M20.637287,121.046021 
	C21.015411,121.445274 21.005951,121.883583 20.993402,122.650894 
	C20.281910,123.050369 19.573505,123.120834 18.673422,122.868301 
	C19.071062,122.058563 19.660381,121.571815 20.637287,121.046021 
z"/>

<path fill="#585759" opacity="1.000000" stroke="none" 
	d="
M22.145809,112.707733 
	C21.352543,114.880066 19.989750,114.608414 18.224466,113.819397 
	C16.507578,110.975929 18.269329,110.950439 20.509701,111.056252 
	C21.503033,111.289787 21.863146,111.788734 22.145809,112.707733 
z"/>
<path fill="#383535" opacity="1.000000" stroke="none" 
	d="
M22.538094,113.025024 
	C21.786633,112.573387 21.395649,112.123459 20.927513,111.372055 
	C21.577061,109.868141 22.477066,110.159409 23.692421,110.896866 
	C24.256807,111.487526 24.543249,111.954399 24.954325,112.664604 
	C24.352163,112.947533 23.625366,112.987129 22.538094,113.025024 
z"/>
<path fill="#B1B6BF" opacity="1.000000" stroke="none" 
	d="
M17.004692,109.009552 
	C16.997269,109.007103 17.097034,108.972481 17.052170,108.985367 
	C17.007303,108.998245 17.012117,109.012001 17.004692,109.009552 
z"/>
<path fill="#221E1F" opacity="1.000000" stroke="none" 
	d="
M22.350426,120.791550 
	C22.016304,121.075005 21.812834,121.075203 21.305168,121.049797 
	C21.179550,120.746857 21.358126,120.469521 21.770144,120.097443 
	C22.003584,120.002701 22.032999,120.024155 22.047741,120.034920 
	C22.202017,120.199890 22.341547,120.354095 22.350426,120.791550 
z"/>



<path fill="#625658" opacity="1.000000" stroke="none" 
	d="
M61.692345,42.284512 
	C62.005772,40.804317 62.147453,39.654400 63.640366,38.835945 
	C64.109261,38.742737 64.278015,38.827774 64.718842,38.992294 
	C65.128853,39.230595 65.266769,39.389404 65.435371,39.861099 
	C65.388489,41.192326 65.114021,42.201843 65.408585,43.536804 
	C66.609085,45.649658 68.804382,46.074486 70.466171,47.772354 
	C72.010963,49.932861 72.951790,51.967014 73.138527,54.680885 
	C73.033363,56.396748 72.587311,57.600319 71.537613,58.956474 
	C67.758308,60.239250 65.584175,58.416649 63.656349,55.413376 
	C63.043133,54.368710 62.678150,53.551407 61.438950,53.144627 
	C60.705841,52.842869 60.315361,52.606731 59.742752,52.037231 
	C58.652710,49.346718 61.024254,47.706165 61.002407,45.134041 
	C61.036396,44.011810 61.107517,43.271088 61.692345,42.284512 
z"/>

<path fill="#2E2F39" opacity="1.000000" stroke="none" 
	d="
M79.370712,42.308968 
	C80.064804,44.162415 80.526054,45.725170 80.986969,47.644409 
	C80.381577,48.846703 79.587387,49.395874 78.176834,49.539352 
	C73.856041,47.037323 75.075569,41.951244 72.283325,38.453308 
	C71.599945,36.079098 72.366035,34.419624 73.353729,32.521259 
	C77.556549,33.989132 76.983574,38.832130 79.370712,42.308968 
z"/>
<path fill="#4A464C" opacity="1.000000" stroke="none" 
	d="
M72.838120,32.151413 
	C74.672127,34.182980 72.526672,36.126492 72.866043,38.810066 
	C71.451797,40.380722 70.328209,41.373943 69.375244,43.005501 
	C68.925568,43.354977 68.710617,43.450321 68.138954,43.575539 
	C66.155334,43.320732 65.201714,42.333286 64.896088,40.401718 
	C64.981445,40.044880 64.990471,39.558155 64.990700,39.314968 
	C68.206116,37.524300 69.824455,34.243366 72.838120,32.151413 
z"/>
<path fill="#4A464C" opacity="1.000000" stroke="none" 
	d="
M73.607567,30.753111 
	C73.361862,30.797058 73.167168,30.639685 73.194374,30.573421 
	C73.377357,30.127729 73.587112,30.143106 73.607567,30.753111 
z"/>

<path fill="#2A2F3E" opacity="1.000000" stroke="none" 
	d="
M87.872757,75.758606 
	C86.746895,75.769661 85.829002,75.440010 87.096558,74.018745 
	C87.562355,74.422340 87.761368,74.950455 87.872757,75.758606 
z"/>
<path fill="#1A1923" opacity="1.000000" stroke="none" 
	d="
M75.703285,60.769436 
	C75.881081,63.070087 76.687225,64.177780 78.686600,65.172737 
	C82.731026,67.185387 83.005371,70.556969 79.476601,73.328430 
	C76.748360,75.471169 79.274498,79.426926 76.172729,81.663857 
	C73.572693,82.788216 72.336365,81.359459 71.257431,79.149849 
	C71.172379,78.585487 71.166977,78.360413 71.213989,77.812012 
	C71.437080,76.899780 71.653961,76.319145 71.502266,75.392899 
	C71.351089,74.895920 71.285889,74.694046 71.153458,74.172531 
	C70.995613,72.848099 70.964462,71.691315 71.722725,71.062752 
	C74.746643,68.556107 73.332405,66.634117 70.841843,64.458618 
	C70.507553,63.950695 70.404877,63.725216 70.234894,63.129295 
	C70.161461,62.241394 70.260269,61.744492 70.694176,60.953476 
	C71.593918,60.170570 72.348145,59.969074 73.544456,59.916046 
	C74.471016,60.017033 74.957062,60.212769 75.703285,60.769436 
z"/>
<path fill="#1A1923" opacity="1.000000" stroke="none" 
	d="
M66.498909,93.988708 
	C63.914127,92.912544 62.996887,91.113159 62.948315,88.376595 
	C62.590191,87.611298 62.457165,87.160858 62.569305,86.328278 
	C62.864582,85.823448 63.042606,85.660812 63.554871,85.359985 
	C64.360825,85.132858 64.836098,85.097939 65.664749,85.171997 
	C69.102364,86.245644 71.191109,84.291092 73.737946,82.599899 
	C74.532799,82.402054 74.997055,82.438545 75.730934,82.779221 
	C77.145050,84.914146 78.072601,87.001640 79.470596,88.702446 
	C81.753029,91.479263 80.008171,92.237541 77.370293,92.968903 
	C73.629272,88.619804 72.607208,88.566277 68.774414,92.648422 
	C68.203323,93.256668 67.658485,93.847054 66.498909,93.988708 
z"/>
<path fill="#434042" opacity="1.000000" stroke="none" 
	d="
M66.220276,94.218201 
	C68.320625,92.346405 68.533684,89.066025 71.999771,88.443008 
	C75.582687,87.798988 77.084045,88.608315 77.011391,92.607635 
	C76.760414,93.204514 76.495323,93.402710 76.124603,93.829330 
	C74.932716,95.739059 73.005699,96.517601 71.474762,98.200554 
	C70.973480,98.419151 70.755661,98.463005 70.223793,98.395309 
	C68.697197,97.035599 67.484657,95.787437 66.220276,94.218201 
z"/>
<path fill="#342929" opacity="1.000000" stroke="none" 
	d="
M76.011307,60.767208 
	C75.546989,61.007584 75.086845,60.993095 74.282120,60.958179 
	C72.328369,59.452057 73.051613,57.319031 72.233246,55.268188 
	C72.240570,52.629654 70.647804,50.901035 69.841034,48.522316 
	C69.857384,47.697140 70.087769,47.297260 70.742279,46.788834 
	C71.288795,46.596645 71.524384,46.575832 72.101028,46.651489 
	C74.535637,48.251820 76.561829,49.814178 77.360352,52.769398 
	C76.324989,55.143974 77.546120,57.487278 76.244080,59.757683 
	C76.022713,60.172558 76.019096,60.342449 76.011307,60.767208 
z"/>
<path fill="#1A1923" opacity="1.000000" stroke="none" 
	d="
M87.051620,100.602020 
	C84.577957,101.332916 83.159477,102.703171 83.004562,105.633301 
	C79.973969,105.731834 79.973587,103.573479 80.020332,101.321861 
	C80.071999,98.832626 81.921417,99.201439 83.503525,98.906746 
	C84.574883,98.707191 85.568604,98.090752 86.825333,97.867897 
	C87.050186,98.796906 87.046738,99.518784 87.051620,100.602020 
z"/>
<path fill="#1A1923" opacity="1.000000" stroke="none" 
	d="
M70.607788,98.739944 
	C71.440712,96.055275 73.190155,94.941986 75.686325,94.184219 
	C76.100250,95.422859 75.576172,96.433350 74.594208,97.444145 
	C73.254700,98.822990 73.224716,99.921684 75.678261,100.026978 
	C79.093094,100.173508 75.449837,101.676788 76.036102,102.697128 
	C74.707115,102.717079 73.415749,102.434166 71.795891,102.098724 
	C69.915588,101.484337 70.706123,100.164513 70.607788,98.739944 
z"/>
<path fill="#342929" opacity="1.000000" stroke="none" 
	d="
M76.005051,82.748672 
	C75.577026,83.005135 75.147812,83.009964 74.396744,83.012718 
	C70.687202,83.618523 67.538155,83.526123 65.568176,79.698128 
	C66.173065,78.237671 67.225937,78.034004 68.633331,77.722092 
	C69.772301,77.600082 70.532295,77.517242 71.634949,77.821594 
	C71.936455,80.296066 73.826988,80.858276 75.692413,81.859421 
	C76.002983,82.161537 76.003426,82.329292 76.005051,82.748672 
z"/>
<path fill="#1A1923" opacity="1.000000" stroke="none" 
	d="
M76.401657,59.949478 
	C77.133514,57.730110 73.402695,55.208408 76.744064,52.937721 
	C77.246246,52.726986 77.389648,52.610966 77.808372,52.464916 
	C78.260574,52.488018 78.437447,52.541149 78.806244,52.794033 
	C78.544411,55.386860 80.318413,58.496811 76.401657,59.949478 
z"/>
<path fill="#232531" opacity="1.000000" stroke="none" 
	d="
M79.439606,52.988628 
	C78.801056,52.973087 78.603943,52.952381 78.112427,52.890289 
	C77.314789,51.835670 76.932190,50.804947 77.611740,49.328552 
	C78.688309,48.686779 79.508255,48.373844 80.657433,48.030899 
	C81.484444,49.356247 81.982239,50.711609 82.501411,52.430641 
	C81.642204,52.857365 80.761627,52.920414 79.439606,52.988628 
z"/>

<path fill="#584C48" opacity="1.000000" stroke="none" 
	d="
M70.636536,129.298416 
	C69.198784,126.133728 70.723228,123.441017 71.249435,120.305679 
	C74.157166,120.561195 77.409966,118.782867 80.011696,121.734657 
	C79.822113,122.319061 79.544014,122.491325 79.342941,122.731468 
	C78.782333,123.400993 77.948807,123.614510 77.243477,124.040627 
	C78.040291,123.993729 78.816246,124.046768 79.773926,124.725952 
	C80.041924,124.938904 80.527870,124.963806 80.770828,124.976379 
	C82.128204,126.158401 81.137428,127.247719 80.714294,128.669495 
	C79.164688,130.544067 76.032417,129.919312 75.600731,133.155243 
	C75.081360,134.159943 74.476624,134.513107 73.326324,134.591034 
	C72.164619,134.357468 71.490097,133.963776 70.652435,133.106949 
	C69.950264,131.733490 69.929352,130.686691 70.636536,129.298416 
z"/>
<path fill="#645758" opacity="1.000000" stroke="none" 
	d="
M72.599525,134.425476 
	C73.313721,133.892746 73.952576,133.694244 74.796333,133.226501 
	C76.644157,130.957947 78.767464,129.896927 81.664322,129.881653 
	C83.954353,130.130325 86.694359,129.454575 84.906967,133.453613 
	C84.524277,134.385208 84.114265,134.925095 83.614273,135.804565 
	C80.650154,137.576752 79.447800,141.306473 75.468338,141.193756 
	C75.208748,140.965393 74.993576,141.228348 74.830627,141.180328 
	C74.230530,140.346069 73.720840,139.596649 73.327179,138.409515 
	C72.862396,137.004959 72.538383,135.914078 72.599525,134.425476 
z"/>

<path fill="#625D62" opacity="1.000000" stroke="none" 
	d="
M68.304230,113.702225 
	C68.400269,114.490562 68.190430,115.116455 67.762077,115.495171 
	C62.049442,120.545731 62.041821,120.537109 58.517609,113.114044 
	C60.934101,111.232971 63.153049,111.988930 65.616005,113.802155 
	C66.594925,113.506294 67.225609,113.371330 68.304230,113.702225 
z"/>
<path fill="#372C2C" opacity="1.000000" stroke="none" 
	d="
M75.121208,141.275665 
	C78.728500,140.584946 79.305222,136.207870 82.808685,135.261078 
	C83.743866,134.516739 84.174049,134.996689 84.804016,135.738434 
	C85.445602,135.985336 85.884018,135.981476 86.651245,135.978088 
	C87.113823,136.158966 87.247581,136.339417 87.190399,136.797440 
	C82.599861,137.474411 80.918159,142.690109 76.098045,143.115784 
	C75.059494,142.855682 74.945671,142.263260 75.121208,141.275665 
z"/>
<path fill="#2D3040" opacity="1.000000" stroke="none" 
	d="
M54.758991,102.109634 
	C54.757446,100.998344 54.868885,99.902069 54.972168,98.387566 
	C55.409042,97.909142 55.854065,97.848953 56.638733,97.773689 
	C57.156685,97.713814 57.334999,97.669014 57.768173,97.729576 
	C60.854092,97.797974 63.173740,99.288338 65.816711,100.681625 
	C66.057381,102.730576 64.926117,102.632462 63.368225,102.223373 
	C60.969906,100.861221 58.841602,100.644218 56.367538,101.616486 
	C55.951069,102.024361 55.785488,102.174507 55.333023,102.151123 
	C55.046143,101.977592 54.871975,102.124649 54.758991,102.109634 
z"/>
<path fill="#474143" opacity="1.000000" stroke="none" 
	d="
M74.447121,114.059265 
	C75.640533,113.522789 76.543915,113.089729 77.480835,112.997513 
	C79.522125,112.796616 81.245071,113.744667 81.515244,115.722588 
	C81.730179,117.296066 79.858543,117.245483 78.921326,116.962479 
	C77.194519,116.441063 73.606453,118.946945 74.447121,114.059265 
z"/>
<path fill="#3A2A24" opacity="1.000000" stroke="none" 
	d="
M81.989670,129.787384 
	C79.898781,131.007034 77.808388,131.963104 75.359612,132.938232 
	C73.262978,128.473175 76.925964,129.460739 79.456932,128.912231 
	C80.277626,128.574295 80.775665,128.458420 81.650604,128.774017 
	C81.982681,129.172424 81.986427,129.348114 81.989670,129.787384 
z"/>
<path fill="#131320" opacity="1.000000" stroke="none" 
	d="
M63.163300,102.323929 
	C63.862797,101.836891 64.722168,101.664795 65.794189,101.237518 
	C66.636551,101.105553 67.266258,101.228767 68.214294,101.393494 
	C68.850952,101.442490 69.169281,101.449982 69.223694,101.855553 
	C68.959778,102.253639 68.982262,102.624634 68.993271,102.810150 
	C69.382347,103.383659 69.527184,103.844879 69.217346,104.688980 
	C66.688095,105.214294 64.641548,104.801842 63.163300,102.323929 
z"/>
<path fill="#413E45" opacity="1.000000" stroke="none" 
	d="
M54.998455,102.372894 
	C55.224735,101.966042 55.403332,101.954491 55.849289,101.908569 
	C57.396866,102.387222 59.868332,101.137024 59.724529,103.667107 
	C59.615192,105.590836 57.477470,104.805542 55.819160,105.106445 
	C55.275558,104.317635 55.113163,103.542923 54.998455,102.372894 
z"/>
<path fill="#372C2C" opacity="1.000000" stroke="none" 
	d="
M80.030304,124.587181 
	C78.193062,124.938904 76.344200,124.938904 73.015915,124.938904 
	C75.948090,123.634140 77.654587,122.874771 79.719810,122.123718 
	C80.058586,122.833176 80.038635,123.534317 80.030304,124.587181 
z"/>
<path fill="#1A1923" opacity="1.000000" stroke="none" 
	d="
M68.895126,113.930557 
	C68.107399,113.969337 67.503098,113.959099 66.451904,113.889969 
	C67.306313,111.673370 68.750938,110.223228 71.069366,113.130219 
	C70.442307,113.589890 69.760437,113.735718 68.895126,113.930557 
z"/>
<path fill="#372C2C" opacity="1.000000" stroke="none" 
	d="
M82.019165,128.662979 
	C81.501770,128.986725 81.024612,128.976700 80.187836,128.932861 
	C80.201241,127.824120 80.574280,126.749191 80.980560,125.331604 
	C83.929039,125.298912 82.194832,127.064301 82.019165,128.662979 
z"/>
<path fill="#9D9CA6" opacity="1.000000" stroke="none" 
	d="
M69.381607,102.260162 
	C68.959778,102.253639 68.699509,101.868546 68.616066,101.651779 
	C69.524193,100.938217 70.047852,100.176994 69.900398,98.657501 
	C69.909737,98.283760 70.298370,98.278687 70.490784,98.300926 
	C70.905533,99.312828 71.127869,100.302490 71.408798,101.669174 
	C70.912743,102.119698 70.358086,102.193184 69.381607,102.260162 
z"/>
<path fill="#1A1923" opacity="1.000000" stroke="none" 
	d="
M69.293182,104.959679 
	C68.999252,104.553543 69.002571,104.108498 69.005081,103.329559 
	C69.517830,103.231926 70.284782,103.339020 70.486305,103.734352 
	C70.798576,104.346924 70.207741,104.750076 69.293182,104.959679 
z"/>
<path fill="#493D3B" opacity="1.000000" stroke="none" 
	d="
M87.106499,137.284180 
	C86.996742,136.892334 86.994041,136.709656 86.985703,136.252747 
	C87.946495,136.028732 88.760124,136.294037 89.016174,137.734344 
	C88.869270,138.175186 88.684471,138.279434 88.243912,138.194275 
	C87.671989,137.922073 87.413788,137.751572 87.106499,137.284180 
z"/>
<path fill="#342A2E" opacity="1.000000" stroke="none" 
	d="
M84.997467,135.621872 
	C84.514374,135.732269 84.021553,135.475357 83.272873,135.109100 
	C83.434227,134.637985 83.851440,134.276199 84.551346,133.850891 
	C84.885277,134.276428 84.936508,134.765503 84.997467,135.621872 
z"/>
<path fill="#342A2E" opacity="1.000000" stroke="none" 
	d="
M88.094223,138.227905 
	C88.165764,138.012970 88.343361,138.021088 88.787514,138.050079 
	C89.054062,138.070953 89.035149,138.547638 89.009842,138.785065 
	C88.651749,138.929901 88.390343,138.739395 88.094223,138.227905 
z"/>

<path fill="#402622" opacity="1.000000" stroke="none" 
	d="
M153.577469,105.957527 
	C154.684128,108.650711 149.950119,107.756866 150.959274,110.902618 
	C150.279999,111.484871 149.495132,111.774963 148.387390,112.109962 
	C147.615051,112.387482 147.136948,112.473938 146.285767,112.305222 
	C145.937241,112.175339 145.824768,112.145798 145.765411,112.132584 
	C147.812241,110.955116 147.073059,109.452179 146.234589,107.658836 
	C148.600784,107.064659 150.998520,107.053101 153.577469,105.957527 
z"/>
<path fill="#61575D" opacity="1.000000" stroke="none" 
	d="
M146.104904,112.375763 
	C146.410370,112.133293 146.883499,112.091240 147.710571,112.102028 
	C147.581604,112.781898 147.005707,113.013443 146.104904,112.375763 
z"/>



<path fill="#A1AABE" opacity="1.000000" stroke="none" 
	d="
M57.860756,54.225994 
	C56.705841,52.682575 57.090771,51.258862 57.053532,49.546173 
	C58.359955,48.293297 59.623062,47.364361 60.010780,45.349365 
	C60.420689,44.656189 60.862274,44.512745 61.669147,44.770401 
	C62.260986,47.344463 60.878407,49.171211 59.944252,51.515556 
	C59.974983,53.165455 59.462021,54.071423 57.860756,54.225994 
z"/>
<path fill="#B3B6C5" opacity="1.000000" stroke="none" 
	d="
M62.032120,44.608070 
	C61.543015,44.991524 61.117649,44.999683 60.374146,45.013275 
	C60.041222,43.881027 59.795849,42.650719 61.567680,42.034676 
	C61.968559,42.726948 62.032211,43.479862 62.032120,44.608070 
z"/>
<path fill="#4F4D53" opacity="1.000000" stroke="none" 
	d="
M22.480669,121.191177 
	C22.179825,120.905182 22.139874,120.735550 22.081203,120.305801 
	C22.918777,119.521484 23.775070,118.997284 24.813000,118.232903 
	C28.308376,119.104530 24.258152,120.239738 24.958447,121.668625 
	C24.188227,121.754204 23.464893,121.530876 22.480669,121.191177 
z"/>

<path fill="#A1AABE" opacity="1.000000" stroke="none" 
	d="
M55.991261,75.288818 
	C56.768463,73.399338 54.145927,71.682648 56.504211,70.091011 
	C57.010284,69.881943 57.201927,69.724220 57.758530,69.648071 
	C58.742100,70.184372 59.163216,70.799400 59.693340,71.795410 
	C61.270393,75.208817 61.226864,78.375397 60.235611,81.906677 
	C59.580467,82.471642 59.097450,82.541878 58.290405,82.208908 
	C57.097046,80.838043 56.202183,79.694809 55.166725,78.268402 
	C54.903133,77.824089 54.780125,77.662956 54.855461,77.271332 
	C55.361172,76.557076 55.668545,76.073311 55.991261,75.288818 
z"/>
<path fill="#ADC0D6" opacity="1.000000" stroke="none" 
	d="
M57.993454,82.359650 
	C58.436054,81.995941 58.880192,82.010605 59.945793,81.826569 
	C60.788219,81.693054 61.009182,81.758224 61.485596,82.056854 
	C62.438087,83.222862 62.939991,84.248688 63.241299,85.724396 
	C63.231895,86.515030 63.199871,86.962502 63.020020,87.712585 
	C60.822266,88.235405 59.084679,87.850113 58.139870,85.327827 
	C57.995487,84.250793 57.995243,83.494415 57.993454,82.359650 
z"/>
<path fill="#" opacity="1.000000" stroke="none" 
	d="
M54.878479,77.111931 
	C55.053799,77.040848 55.035915,77.513054 55.031029,77.749146 
	C54.850483,77.822411 54.662163,77.669930 54.512077,77.486221 
	C54.488049,77.456818 54.635162,77.287598 54.878479,77.111931 
z"/>
<path fill="#97A9BD" opacity="1.000000" stroke="none" 
	d="
M54.820450,97.696648 
	C54.404800,97.809059 53.856293,97.654915 53.147820,97.253532 
	C53.554432,97.147560 54.121014,97.288826 54.820450,97.696648 
z"/>
<path fill="#97A9BD" opacity="1.000000" stroke="none" 
	d="
M57.926186,97.691818 
	C57.845074,97.874672 57.667118,97.914406 57.233765,97.856384 
	C57.262028,97.688644 57.545685,97.618668 57.926186,97.691818 
z"/>

<path fill="#342929" opacity="1.000000" stroke="none" 
	d="
M57.639465,54.319317 
	C58.137993,53.389019 58.751373,52.817127 59.627285,52.058990 
	C60.337341,51.940262 60.784870,52.007774 61.571590,52.093189 
	C62.537193,52.537521 63.052505,53.089073 63.782043,53.821007 
	C65.362801,56.565784 67.414749,58.229565 70.638275,58.824802 
	C71.315804,59.213085 71.457436,59.651237 71.257233,60.450474 
	C71.026680,61.304810 70.981529,61.852077 70.884277,62.807861 
	C69.950470,63.824783 69.113716,63.494511 67.998550,62.923248 
	C66.403305,61.681454 65.048904,60.674549 63.171013,59.910084 
	C62.101540,59.456257 61.296886,59.203423 60.163128,58.902515 
	C59.222809,58.530415 58.730694,58.110058 58.444214,57.152782 
	C58.226013,56.105236 57.990170,55.391476 57.639465,54.319317 
z"/>
<path fill="#352928" opacity="1.000000" stroke="none" 
	d="
M71.240829,46.622147 
	C70.781807,47.248257 70.537239,47.560127 70.026077,48.021282 
	C67.739677,47.217655 65.650085,46.379868 64.017822,44.374969 
	C64.957245,42.759140 66.365479,43.702614 67.768555,43.153130 
	C68.011154,42.952862 68.503540,42.963039 68.749596,42.972733 
	C70.685059,43.447784 71.592644,44.491413 71.240829,46.622147 
z"/>
<path fill="#4F433F" opacity="1.000000" stroke="none" 
	d="
M71.426559,60.818760 
	C71.052757,60.333351 71.033684,59.909161 71.003227,59.161430 
	C71.306534,57.776707 71.621231,56.715523 71.979340,55.317635 
	C74.366463,56.076580 73.996223,58.189987 73.953918,60.556007 
	C73.218781,60.918495 72.500038,60.899235 71.426559,60.818760 
z"/>
<path fill="#221F26" opacity="1.000000" stroke="none" 
	d="
M67.740921,42.811867 
	C67.732101,45.856419 65.943726,44.215382 64.312904,44.051361 
	C63.962223,42.825974 63.633904,41.580921 64.686218,40.253708 
	C65.811195,40.920212 66.640938,41.795544 67.740921,42.811867 
z"/>
<path fill="#4F433F" opacity="1.000000" stroke="none" 
	d="
M63.936710,53.704124 
	C63.083511,53.952862 62.321877,53.692665 61.977829,52.416656 
	C62.876160,52.057846 63.663799,52.285339 63.936710,53.704124 
z"/>
<path fill="#4A464C" opacity="1.000000" stroke="none" 
	d="
M77.632172,48.768055 
	C77.876549,50.029869 77.884750,51.060024 77.855484,52.469543 
	C77.818016,52.848900 77.459503,52.871170 77.281174,52.857086 
	C75.501076,51.091599 73.899315,49.340195 72.151711,47.298073 
	C73.070328,44.583858 71.997047,42.002728 72.775192,39.274139 
	C72.994003,39.006290 73.021507,38.978867 73.036591,38.964508 
	C76.650871,41.170727 75.657738,45.472477 77.632172,48.768055 
z"/>
<path fill="#5E504C" opacity="1.000000" stroke="none" 
	d="
M72.618851,39.010284 
	C73.183090,41.628708 75.603439,44.322819 72.373962,46.927284 
	C72.005875,47.007355 71.515213,46.981884 71.270798,46.959137 
	C71.081856,45.481087 69.996666,44.621510 69.133110,43.278404 
	C68.915077,40.707550 69.556374,39.023548 72.618851,39.010284 
z"/>
<path fill="#635657" opacity="1.000000" stroke="none" 
	d="
M67.754425,61.777588 
	C68.763649,62.331554 69.501389,62.696541 70.535652,63.138954 
	C70.832176,63.216385 70.891869,63.613014 70.926758,63.810505 
	C72.236740,65.464981 74.320374,66.786476 73.210884,69.034355 
	C72.127594,71.229164 69.771301,71.496506 67.560776,71.248726 
	C64.608353,70.917778 61.679607,70.376114 58.304527,70.183281 
	C57.731319,70.034950 57.549488,70.056984 57.093151,70.059341 
	C56.835518,69.576042 56.852394,69.112411 56.889870,68.301537 
	C58.746655,65.178581 58.416512,61.839027 59.520271,58.522484 
	C60.675503,58.310066 61.600235,58.387867 62.769814,58.725197 
	C64.115082,60.520210 65.791473,61.067333 67.754425,61.777588 
z"/>
<path fill="#342929" opacity="1.000000" stroke="none" 
	d="
M57.990585,70.291527 
	C61.078526,68.040985 64.257973,69.511375 67.462669,69.886734 
	C69.032394,70.070587 70.884399,70.461838 72.129364,69.046494 
	C73.747040,67.207420 71.090576,66.250877 70.996803,64.363274 
	C75.628677,66.328827 75.877022,67.636772 72.650215,71.469322 
	C72.105217,72.116623 72.201080,73.303490 71.996933,74.622986 
	C71.652260,75.332710 71.252785,75.546295 70.438583,75.615616 
	C68.762619,75.305168 67.583572,74.557709 65.903305,74.238289 
	C64.446716,73.946320 63.371292,73.527878 61.885414,73.315903 
	C60.829651,73.132339 60.164799,72.895142 59.323093,72.212250 
	C58.731739,71.500717 58.399879,71.035423 57.990585,70.291527 
z"/>
<path fill="#493D3B" opacity="1.000000" stroke="none" 
	d="
M69.719498,75.323196 
	C70.441010,75.001930 70.884506,75.003128 71.660507,75.004623 
	C71.993019,75.004921 71.999657,75.000305 71.997360,75.003494 
	C72.375671,75.393097 72.528275,75.854851 72.245560,76.712929 
	C72.038284,77.033897 72.018372,77.506905 71.998405,77.742569 
	C71.462372,78.221664 70.946297,78.465088 70.150040,78.762039 
	C68.997093,77.857582 68.999420,76.781326 69.719498,75.323196 
z"/>
<path fill="#342929" opacity="1.000000" stroke="none" 
	d="
M72.332047,76.985733 
	C72.022461,76.583328 72.006645,76.132767 71.992950,75.344437 
	C73.220093,75.318832 74.720802,75.540924 72.332047,76.985733 
z"/>
<path fill="#493D3B" opacity="1.000000" stroke="none" 
	d="
M65.736786,78.566658 
	C67.150421,82.705025 71.058891,81.147156 73.723625,82.864998 
	C72.248322,85.670334 69.967728,87.410507 66.209900,86.556915 
	C65.437363,85.532448 65.237755,84.475052 63.844749,84.028000 
	C62.735085,83.603203 62.082630,83.051338 61.213734,82.242935 
	C60.972160,82.022858 60.969505,81.953903 61.002869,81.945129 
	C60.497387,77.812592 61.206963,77.220184 65.736786,78.566658 
z"/>
<path fill="#64606C" opacity="1.000000" stroke="none" 
	d="
M60.979919,82.371849 
	C61.794319,82.247612 62.616482,82.472366 63.737106,82.828690 
	C64.603775,83.707726 64.805405,84.527443 64.330597,85.837631 
	C64.136406,86.233047 63.674824,86.281860 63.469372,86.174706 
	C61.885921,85.373161 61.469952,84.024452 60.979919,82.371849 
z"/>
<path fill="#5D5253" opacity="1.000000" stroke="none" 
	d="
M64.434036,86.235504 
	C64.092850,85.414062 64.049286,84.595070 64.020653,83.368164 
	C65.895287,82.961212 67.482651,83.175369 66.037338,86.016891 
	C65.522575,86.321854 65.127121,86.279907 64.434036,86.235504 
z"/>
<path fill="#5D5253" opacity="1.000000" stroke="none" 
	d="
M66.349167,78.939255 
	C63.440048,77.825760 61.547215,78.036705 61.047035,81.587082 
	C60.862907,81.962418 60.689583,81.988480 60.253349,82.009979 
	C58.589569,79.028023 60.542881,75.706741 59.052029,72.352890 
	C59.781185,71.985573 60.498779,72.005142 61.574692,72.052277 
	C63.024101,72.817490 63.936920,74.008507 65.795837,73.290207 
	C67.249413,73.557335 68.428734,74.025070 69.802780,74.746765 
	C69.979378,76.022018 69.961235,77.043312 69.906471,78.440086 
	C68.827805,78.856720 67.785767,78.897873 66.349167,78.939255 
z"/>

<path fill="#A1AABE" opacity="1.000000" stroke="none" 
	d="
M59.578152,58.060131 
	C59.770973,61.555725 61.086094,65.171669 57.260712,67.829948 
	C55.942879,64.303177 57.074055,60.817039 58.105110,57.056992 
	C58.776417,57.175327 59.090977,57.531662 59.578152,58.060131 
z"/>

<path fill="#4F433F" opacity="1.000000" stroke="none" 
	d="
M67.871201,61.669678 
	C66.056923,61.929718 63.840099,62.438126 63.051701,59.353584 
	C64.853073,59.246914 66.455376,59.973976 67.871201,61.669678 
z"/>
<path fill="#493D3B" opacity="1.000000" stroke="none" 
	d="
M65.716492,73.024994 
	C64.422256,76.394089 63.309425,73.894257 62.003654,72.400566 
	C63.076309,72.373360 64.219597,72.666870 65.716492,73.024994 
z"/>
</svg>